<svg xmlns="http://www.w3.org/2000/svg" xmlns:xlink="http://www.w3.org/1999/xlink" width="500" height="500" viewBox="0 0 500 500">
  <defs>
    <clipPath id="clip-Artboard_1">
      <rect width="500" height="500"/>
    </clipPath>
  </defs>
  <g id="Artboard_1" data-name="Artboard – 1" clip-path="url(#clip-Artboard_1)">
    <rect width="500" height="500" fill="#fff"/>
    <g id="profile" transform="translate(56 78)">
      <path id="Path_1" data-name="Path 1" d="M345.021,355.53c-.019.771-.021,3.31-.021,14.21C345,354.587,344.987,356.075,345.021,355.53Z" transform="translate(-76.087 -101.317)" fill="#e0b7a3"/>
      <path id="Path_2" data-name="Path 2" d="M271.242,255.9c-14.944-5.47-19.57-1.087-30.153-5.684a29.548,29.548,0,0,1-17.8-27.114v-4.884l-.107-.265A70.8,70.8,0,0,0,266.9,152.528V150.29A18.59,18.59,0,0,0,285.492,131.7V97.021a89.021,89.021,0,1,0-178.042,0v35.723a17.636,17.636,0,0,0,17.876,17.547v2.238a70.8,70.8,0,0,0,43.724,65.425l-.107.265V223.1a29.548,29.548,0,0,1-17.8,27.114c-10.747,4.676-15.752.1-31.046,6.021A53.334,53.334,0,0,0,86,305.98v28.072a5.719,5.719,0,0,0,5.72,5.72H300.508a5.719,5.719,0,0,0,5.72-5.72V305.98a53.339,53.339,0,0,0-34.986-50.08Zm-.05,3.9c0-1.616-.014-3.029.036-3.718C271.2,256.8,271.2,257.16,271.192,259.8Z" transform="translate(-2.28 -2.28)" fill="#a2d0ff"/>
      <path id="Path_3" data-name="Path 3" d="M294.042,97.021V131.7a18.59,18.59,0,0,1-18.591,18.591V106.123A34.321,34.321,0,0,0,241.13,71.8H168.2a34.321,34.321,0,0,0-34.321,34.321V150.29A17.636,17.636,0,0,1,116,132.744V97.021a89.021,89.021,0,1,1,178.042,0Z" transform="translate(-10.829 -2.28)" fill="#d1e7ff"/>
      <path id="Path_4" data-name="Path 4" d="M282.575,177.957a70.788,70.788,0,0,1-141.575,0V131.551A34.321,34.321,0,0,1,175.321,97.23h72.933a34.321,34.321,0,0,1,34.321,34.321Z" transform="translate(-17.953 -27.708)" fill="#b9dcff"/>
      <path id="Path_5" data-name="Path 5" d="M345,369.532c0-16.085-.016-13.2.043-14.732C345,355.733,345,354.689,345,369.532Z" transform="translate(-76.087 -101.108)" fill="#e0b7a3"/>
      <path id="Path_6" data-name="Path 6" d="M306.228,402.515v28.072a5.719,5.719,0,0,1-5.72,5.72H91.72a5.719,5.719,0,0,1-5.72-5.72V402.515a53.334,53.334,0,0,1,34.092-49.744c15.294-5.92,20.3-1.344,31.046-6.021v.007a49.128,49.128,0,0,0,89.95,0v-.007c10.582,4.6,15.209.215,30.153,5.684A53.339,53.339,0,0,1,306.228,402.515Z" transform="translate(-2.28 -98.814)" fill="#b9dcff"/>
      <path id="Path_7" data-name="Path 7" d="M275.64,368.966a29.62,29.62,0,0,0,9.86,1.68,53.324,53.324,0,0,1,53.32,53.32v12.341H354.55a5.72,5.72,0,0,0,5.72-5.72V402.515a53.323,53.323,0,0,0-53.32-53.32,29.6,29.6,0,0,1-11.819-2.445v.007A49.038,49.038,0,0,1,275.64,368.966Z" transform="translate(-56.322 -98.814)" fill="#a2d0ff"/>
      <path id="Path_8" data-name="Path 8" d="M170.631,368.966a29.62,29.62,0,0,1-9.86,1.68,53.324,53.324,0,0,0-53.32,53.32v12.341H91.72a5.72,5.72,0,0,1-5.72-5.72V402.515a53.323,53.323,0,0,1,53.32-53.32,29.6,29.6,0,0,0,11.819-2.445v.007A49.038,49.038,0,0,0,170.631,368.966Z" transform="translate(-2.28 -98.814)" fill="#d1e7ff"/>
      <path id="Path_9" data-name="Path 9" d="M345.021,355.53c-.019.771-.021,3.31-.021,14.21C345,354.587,344.987,356.075,345.021,355.53Z" transform="translate(-76.087 -101.317)" fill="#e0b7a3"/>
      <path id="Path_10" data-name="Path 10" d="M284.83,352.434c-.074,1.4-.05-5.428-.05,83.873H133.909V353.378l-.229-.608c15.294-5.923,20.3-1.348,31.046-6.021v.007a49.128,49.128,0,0,0,89.95,0v-.007C265.256,351.35,269.888,346.962,284.83,352.434Z" transform="translate(-15.867 -98.814)" fill="#b9dcff"/>
      <path id="Path_11" data-name="Path 11" d="M177.06,363.688a3.959,3.959,0,0,1-2.7,6.959,53.232,53.232,0,0,0-40.449,18.576V353.378l-.229-.608c15.294-5.923,20.3-1.348,31.046-6.021v.007A48.978,48.978,0,0,0,177.06,363.688Z" transform="translate(-15.867 -98.814)" fill="#d1e7ff"/>
      <path id="Path_12" data-name="Path 12" d="M325.234,388.415A53.189,53.189,0,0,0,285.5,370.646a29.619,29.619,0,0,1-9.86-1.68,49.015,49.015,0,0,0,19.492-22.209v-.007c10.467,4.58,15.415.242,30.153,5.684C325.227,353.514,325.227,349.732,325.234,388.415Z" transform="translate(-56.322 -98.814)" fill="#a2d0ff"/>
      <path id="Path_13" data-name="Path 13" d="M256.828,313.635a70.982,70.982,0,0,1-55.958,0c.97-4.023.808-6.628.808-11.741l.107-.265a70.933,70.933,0,0,0,54.128,0l.107.265c0,5.115-.162,7.719.808,11.741Z" transform="translate(-35.015 -85.956)" fill="#8bc4ff"/>
      <path id="Path_14" data-name="Path 14" d="M182.663,217.621c11.2,11.383-4.661,28.861-16.869,18.564A69.338,69.338,0,0,1,141,182.4V135.994a34.687,34.687,0,0,1,6.058-19.524c4.72-6.9,15.444-3.346,15.393,5.01,0,.174,0,46.444,0,46.618a70.07,70.07,0,0,0,20.212,49.522Z" transform="translate(-17.953 -32.15)" fill="#d1e7ff"/>
      <path id="Path_15" data-name="Path 15" d="M228.645,29.44a89,89,0,0,0-81.519,48.614,8.913,8.913,0,0,1-1.943,2.584,34.215,34.215,0,0,0-11.306,25.456v26.83c0,11.476-17.274,12.138-17.854.676-.035-.694-.022-36.43-.022-35.741C116,38.04,173.5-6,231.41,11.952c9.9,3.068,7.6,17.721-2.766,17.488Z" transform="translate(-10.828 -2.252)" fill="#e8f3ff"/>
      <path id="Path_16" data-name="Path 16" d="M309.669,303.7v33.79a5.72,5.72,0,0,1-11.44,0V303.7a47.517,47.517,0,0,0-23.6-41.116v74.906a5.72,5.72,0,0,1-11.44,0V257.784a47.821,47.821,0,0,0-12.565-1.681,35.122,35.122,0,0,1-30.216-16.966,5.72,5.72,0,1,1,9.77-5.952,23.765,23.765,0,0,0,20.445,11.477A59.01,59.01,0,0,1,309.669,303.7Zm-79.806-41.657a5.72,5.72,0,0,1-.692,8.06,54.838,54.838,0,0,1-83.186-15.142c-8.07,2.091-12.031.073-22.223,3.017v79.513a5.72,5.72,0,0,1-11.44,0V263.011A47.5,47.5,0,0,0,89.44,303.7v33.79a5.72,5.72,0,0,1-11.44,0V303.7a59.008,59.008,0,0,1,59.04-59.04,23.848,23.848,0,0,0,23.9-23.84v-1.507a76.631,76.631,0,0,1-43.562-66.242,23.344,23.344,0,0,1-17.931-22.61V94.741a94.741,94.741,0,1,1,189.482,0v35.723a5.72,5.72,0,1,1-11.44,0V94.741a83.3,83.3,0,0,0-166.6,0v35.723a11.81,11.81,0,0,0,6.435,10.465V103.845A40.087,40.087,0,0,1,157.368,63.8H230.3a40.085,40.085,0,0,1,40.042,40.039c0,.127,0,46.874,0,47-.391,50.491-49.2,87.2-98.078,72.806a35.157,35.157,0,0,1-15.771,26.641A43.4,43.4,0,0,0,221.8,261.353,5.723,5.723,0,0,1,229.863,262.045Zm-36.029-46.733A65.141,65.141,0,0,0,258.9,150.245v-46.4a28.632,28.632,0,0,0-28.6-28.6H157.368a28.634,28.634,0,0,0-28.6,28.6v46.4A65.141,65.141,0,0,0,193.834,215.312Z" fill="#2e36ff"/>
    </g>
  </g>
</svg>
