<svg xmlns="http://www.w3.org/2000/svg" width="1283" height="1236" viewBox="0 0 1283 1236">
  <g id="Group_2" data-name="Group 2" transform="translate(-291 -82)">
    <ellipse id="Ellipse_5" data-name="Ellipse 5" cx="641.5" cy="618" rx="641.5" ry="618" transform="translate(291 82)" fill="#3339dd"/>
    <g id="undraw_connection_b38q" transform="translate(635 619.945)">
      <path id="Path_17" data-name="Path 17" d="M488.174,502.48A200.684,200.684,0,1,1,630.08,443.7,200.684,200.684,0,0,1,488.174,502.48Zm0-400.061c-109.937,0-199.377,89.44-199.377,199.377s89.44,199.377,199.377,199.377S687.551,411.732,687.551,301.8s-89.44-199.377-199.377-199.377Z" transform="translate(-125.374 -45.791)" fill="#2c2b3c"/>
      <path id="Path_18" data-name="Path 18" d="M609.47,666.651c-3.716,13.738-16.445,22.246-16.445,22.246s-6.7-13.765-2.988-27.5,16.445-22.246,16.445-22.246S613.186,652.914,609.47,666.651Z" transform="translate(-229.765 -232.123)" fill="#d0cde1"/>
      <path id="Path_19" data-name="Path 19" d="M568.046,666.651c3.716,13.738,16.445,22.246,16.445,22.246s6.7-13.765,2.988-27.5-16.445-22.246-16.445-22.246S564.33,652.914,568.046,666.651Z" transform="translate(-222.15 -232.123)" fill="#d0cde1"/>
      <path id="Path_20" data-name="Path 20" d="M563.493,671c10.2,9.927,11.443,25.187,11.443,25.187s-15.288-.835-25.486-10.762-11.443-25.187-11.443-25.187S553.3,661.077,563.493,671Z" transform="translate(-212.136 -239.427)" fill="#3f3d56"/>
      <path id="Path_21" data-name="Path 21" d="M605.943,671c-10.2,9.927-11.443,25.187-11.443,25.187s15.288-.835,25.486-10.762,11.443-25.187,11.443-25.187S616.141,661.077,605.943,671Z" transform="translate(-231.699 -239.427)" fill="#3f3d56"/>
      <path id="Path_22" data-name="Path 22" d="M568.046,124.394c3.716-13.738,16.445-22.246,16.445-22.246s6.7,13.765,2.988,27.5S571.034,151.9,571.034,151.9,564.33,138.132,568.046,124.394Z" transform="translate(-222.15 -46.157)" fill="#d0cde1"/>
      <path id="Path_23" data-name="Path 23" d="M609.47,124.394c-3.716-13.738-16.445-22.246-16.445-22.246s-6.7,13.765-2.988,27.5S606.482,151.9,606.482,151.9,613.186,138.132,609.47,124.394Z" transform="translate(-229.765 -46.157)" fill="#d0cde1"/>
      <path id="Path_24" data-name="Path 24" d="M605.943,127.353c-10.2-9.927-11.443-25.187-11.443-25.187s15.288.835,25.486,10.762,11.443,25.187,11.443,25.187S616.141,137.279,605.943,127.353Z" transform="translate(-231.699 -46.163)" fill="#3f3d56"/>
      <path id="Path_25" data-name="Path 25" d="M563.493,127.353c10.2-9.927,11.443-25.187,11.443-25.187s-15.288.835-25.486,10.762-11.443,25.187-11.443,25.187S553.3,137.279,563.493,127.353Z" transform="translate(-212.136 -46.163)" fill="#3f3d56"/>
      <rect id="Rectangle_1" data-name="Rectangle 1" width="259.815" height="264.202" transform="translate(9.562 8.287)" fill="#3339dd"/>
      <path id="Path_26" data-name="Path 26" d="M267.5,22.935H22.935V270.313H36.053V36.991H267.5Z" transform="translate(-7.942 -7.942)" fill="#3f3d56"/>
      <path id="Path_27" data-name="Path 27" d="M267.5,22.935H22.935V270.313H36.053V36.991H267.5Z" transform="translate(-7.942 -7.942)" opacity="0.3"/>
      <path id="Path_29" data-name="Path 29" d="M39.5,16.495V293.858H314.052V16.495Zm259.559,262.37H54.493V31.487H299.059Z" transform="translate(-39.5 -16.495)" fill="#d0cde1"/>
      <path id="Path_30" data-name="Path 30" d="M327.262,456.438s12.415,24.054,19.4,29.485-11.251,12.027-11.251,12.027l-21.338-33.365Z" transform="translate(-134.585 -168.849)" fill="#c78f97"/>
      <path id="Path_31" data-name="Path 31" d="M206.369,366.82s57.807,15.131,62.85,25.218,20.562,34.529,20.562,34.529L266.892,444.8l-22.5-33.753-62.074-27.933Z" transform="translate(-88.958 -137.814)" fill="#d0cde1"/>
      <path id="Path_32" data-name="Path 32" d="M336.758,501.475s-5.431-4.656-6.983-1.552-6.207,19.01-6.207,19.01,6.6,6.207,20.174,2.328c0,0,3.492-2.716,8.923,0s25.606-2.716,24.83-11.639-21.338-8.147-21.338-8.147-8.661-9.7-9.762-6.015.451,4.076.451,4.076S339.861,506.906,336.758,501.475Z" transform="translate(-137.874 -182.073)" fill="#2c2b3c"/>
      <path id="Path_33" data-name="Path 33" d="M240.2,492.641l-3.88,32.589h19.01s-1.552-25.218-1.164-28.321S240.2,492.641,240.2,492.641Z" transform="translate(-107.661 -181.386)" fill="#c78f97"/>
      <path id="Path_34" data-name="Path 34" d="M255.177,382.845s10.475,15.519,4.268,16.682-11.251-16.682-11.251-16.682Z" transform="translate(-111.771 -143.363)" fill="#a0616a"/>
      <path id="Path_35" data-name="Path 35" d="M137.339,378.827s-7.759,22.89,22.89,29.1,39.96,11.251,39.96,11.251l3.88,39.572,26.77,1.552s12.8-60.134-3.88-67.894-51.987-16.683-51.987-16.683Z" transform="translate(-73.079 -140.897)" fill="#d0cde1"/>
      <path id="Path_36" data-name="Path 36" d="M234.535,529.58s5.431-2.716,6.207-2.716c0,0,3.41-7.865,9.658-7.036l13.62,19.839s20.562,14.743,6.207,18.622a53.061,53.061,0,0,1-25.606.776L238.8,554.8s.776-4.268-4.268-3.492c0,0-10.475-4.268-10.087-7.371s8.629-16.613,8.629-16.613Z" transform="translate(-103.545 -190.78)" fill="#2c2b3c"/>
      <circle id="Ellipse_1" data-name="Ellipse 1" cx="15.519" cy="15.519" r="15.519" transform="translate(118.769 131.433)" fill="#c78f97"/>
      <path id="Path_37" data-name="Path 37" d="M216.634,233.878s-13.967,10.087-16.682,10.475,12.8,19.4,12.8,19.4,7.371-12.027,12.027-13.579S216.634,233.878,216.634,233.878Z" transform="translate(-94.955 -91.776)" fill="#c78f97"/>
      <path id="Path_38" data-name="Path 38" d="M183.9,249.353s-5.819-7.759-9.311-7.759-34.917,3.492-37.632,29.485-1.164,71.385-1.164,71.385-2.328-11.251,23.666-6.6c0,0,31.037-6.6,36.469-6.6s7.759-55.479,7.759-55.479l-8.833-13.7S190.88,267.587,183.9,249.353Z" transform="translate(-72.693 -94.447)" fill="#2c2b3c"/>
      <path id="Path_39" data-name="Path 39" d="M228.721,286.105l5.819,3.1,6.983,42.676,9.7,22.114s-10.475-3.606-11.251.719l-15.519-22.445Z" transform="translate(-103.55 -109.862)" fill="#2c2b3c"/>
      <path id="Path_40" data-name="Path 40" d="M233.142,214.343l8.442,1.055c-.161,1.718-.116,3.846,1.406,4.659.716.382,1.624.363,2.258.868,1.525,1.216.033,3.832.895,5.583l2.469.653a4.773,4.773,0,0,0,6.486,1.945c1.659-1,2.5-2.9,3.251-4.685.892-2.133,1.8-4.425,1.356-6.694-.48-2.437-2.471-4.463-2.561-6.946-.04-1.111.194-2.5-.742-3.094a3.958,3.958,0,0,0-1.369-.363c-2.157-.45-3.358-2.683-4.966-4.189-3.371-3.156-8.547-3.073-13.156-2.8a11.686,11.686,0,0,0-3.872.675,11.281,11.281,0,0,0-3.648,2.909,38.109,38.109,0,0,0-6.509,8.623,15.3,15.3,0,0,0-1.548,10.5c-.087-.337,2.847-2.543,3.212-2.9a7.607,7.607,0,0,0,1.871-2.918C227.862,214.248,229.874,213.935,233.142,214.343Z" transform="translate(-102.343 -80.118)" fill="#2f2e41"/>
      <path id="Path_41" data-name="Path 41" d="M162.1,281.777l1.164,27.158,17.257,20.238L164.82,306.607Z" transform="translate(-56.137 -97.581)" opacity="0.1"/>
      <path id="Path_42" data-name="Path 42" d="M114.625,293.054,128.2,324.479l17.458,14.354-18.622-12.8Z" transform="translate(-39.695 -101.486)" opacity="0.1"/>
      <path id="Path_43" data-name="Path 43" d="M259.616,348.384l8.2,5.644a2.266,2.266,0,0,1,.627,2.787l-1.1,2.264.254.175-1.247,2.573-.254-.175-9.038,18.65a1.75,1.75,0,0,1-2.6.831l-7.71-5.3a2.6,2.6,0,0,1-.721-3.2l11.411-23.547a1.461,1.461,0,0,1,2.174-.694Z" transform="translate(-110.929 -131.345)" fill="#3f3d56"/>
      <path id="Path_44" data-name="Path 44" d="M207.976,356.193l8.831,6.075,11.52-23.773L219.5,332.42Z" transform="translate(-72.023 -115.119)" fill="#fff"/>
      <path id="Path_45" data-name="Path 45" d="M238.163,377.276s15.389,10.664,10.026,14-16.534-11.468-16.534-11.468Z" transform="translate(-106.044 -141.435)" fill="#c78f97"/>
      <path id="Path_46" data-name="Path 46" d="M163.47,256.431S143.3,262.25,149.115,280.1c1.4,4.3,3.1,8.926,4.869,13.46,5.56,14.262,11.814,27.664,11.814,27.664l17.536,15.855,23.589,6.647,2.716-2.328s.776-7.371-2.716-8.147-8.923-3.88-8.923-3.88l-13.967-20.562S183.644,257.595,163.47,256.431Z" transform="translate(-77.095 -99.586)" fill="#2c2b3c"/>
      <rect id="Rectangle_2" data-name="Rectangle 2" width="253.629" height="257.911" transform="translate(723.458 462.431) rotate(180)" fill="#3339dd"/>
      <path id="Path_47" data-name="Path 47" d="M733.389,322.881H972.133V564.369H959.326V336.6H733.389Z" transform="translate(-253.976 -111.815)" fill="#3f3d56"/>
      <path id="Path_48" data-name="Path 48" d="M733.389,322.881H972.133V564.369H959.326V336.6H733.389Z" transform="translate(-253.976 -111.815)" opacity="0.3"/>
      <path id="Path_50" data-name="Path 50" d="M750.5,316.987V587.746h268.015V316.987Zm14.636,14.636h238.744V573.11H765.136Z" transform="translate(-285.723 -120.556)" fill="#d0cde1"/>
      <path id="Path_51" data-name="Path 51" d="M966.482,506.837c-5.771-9.752-17.189-10.206-17.189-10.206s-11.126-1.423-18.264,13.429c-6.653,13.843-15.834,27.209-1.478,30.45l2.593-8.071,1.606,8.672a56.149,56.149,0,0,0,6.142.1c15.374-.5,30.016.145,29.544-5.372C968.81,528.511,972.035,516.221,966.482,506.837Z" transform="translate(-345.096 -182.756)" fill="#2f2e41"/>
      <path id="Path_52" data-name="Path 52" d="M886.3,613.6l-1.215,21.856L920.7,639.1l1.215-22.665-12.142-7.689Z" transform="translate(-306.508 -210.81)" fill="#c78f97"/>
      <path id="Path_53" data-name="Path 53" d="M1006.29,687.582c-1.068-10.325-43.471-15.011-53.661-15.99l-3.81-2.223L947.6,656.418s-37.64-3.238-40.473-3.643-5.261,4.857-5.261,6.071c0,.877-.529,7.144-2.656,10.858-4.592,3.69-18.592,15.3-18.592,19.7,0,5.261,11.13,71.435,11.13,71.435l1.214,13.76,11.332,2.024-.809-42.9s4.047-24.688-1.619-31.569v-2.833s16.619-4.33,22.476-9.044c1.7-.365,6.467-1.263,9.1-.482.361.213.778.431,1.241.653a1.894,1.894,0,0,1,.168.171l.046-.07c7.577,3.547,27.014,8.02,34.963,6.748a27.819,27.819,0,0,1,17.808,3.238c-4.452,5.666-1.214,21.855-1.214,21.855l.4,34.807,5.666,6.88h7.69V745.053S1007.5,699.319,1006.29,687.582Z" transform="translate(-330.785 -236.834)" fill="#2c2b3c"/>
      <circle id="Ellipse_2" data-name="Ellipse 2" cx="13.356" cy="13.356" r="13.356" transform="translate(587.275 324.068)" fill="#c78f97"/>
      <path id="Path_54" data-name="Path 54" d="M940.367,545.676s2.024,8.9-.809,9.714a38.315,38.315,0,0,0-6.476,2.833l-3.238,10.523v10.523l39.258,4.452,1.214-3.643v-5.261l-4.452-8.095-2.024-2.024s-8.9-9.714-6.88-19.022Z" transform="translate(-347.83 -199.753)" fill="#c78f97"/>
      <path id="Path_55" data-name="Path 55" d="M994.351,594.9s1.214,14.165,0,20.641-.809,16.189-.809,16.189l-8.9-1.619V608.254l2.024-11.737Z" transform="translate(-366.805 -216.798)" fill="#c78f97"/>
      <circle id="Ellipse_3" data-name="Ellipse 3" cx="8.256" cy="8.256" r="8.256" transform="translate(597.338 305.669)" fill="#2f2e41"/>
      <path id="Path_56" data-name="Path 56" d="M951.037,489.029a8.256,8.256,0,0,1,7.386-8.209,8.256,8.256,0,1,0,0,16.419A8.256,8.256,0,0,1,951.037,489.029Z" transform="translate(-354.568 -177.276)" fill="#2f2e41"/>
      <path id="Path_57" data-name="Path 57" d="M930.735,491.2l-11.28-5.909-15.578,2.417-3.223,14.235,8.023-.309,2.242-5.23v5.143l3.7-.142,2.149-8.326,1.343,8.864,13.161-.269Z" transform="translate(-311.901 -168.059)" fill="#2f2e41"/>
      <path id="Path_58" data-name="Path 58" d="M906.885,818.356s5.743,2.7,7.432,3.716,8.446-1.013,7.095,5.068-7.095,11.824-7.095,11.824-2.7,3.04-2.7,5.067-6.756,17.567-14.865,16.891-6.756-8.784-6.756-8.784l1.689-8.783s3.378-14.865,4.054-14.527a14.766,14.766,0,0,1,2.365,2.7A14.985,14.985,0,0,0,906.885,818.356Z" transform="translate(-334.001 -294.183)" fill="#d0cde1"/>
      <path id="Path_59" data-name="Path 59" d="M1036.939,802.877s-5.743,2.7-7.432,3.716-8.446-1.013-7.094,5.068,7.094,11.824,7.094,11.824,2.7,3.041,2.7,5.068,6.757,17.567,14.865,16.891,6.757-8.784,6.757-8.784l-1.689-8.784s-3.378-14.865-4.054-14.527a14.753,14.753,0,0,0-2.365,2.7A14.984,14.984,0,0,1,1036.939,802.877Z" transform="translate(-379.826 -288.823)" fill="#d0cde1"/>
      <path id="Path_60" data-name="Path 60" d="M969.047,651.788v-3.212h-.714v-1.427a2.5,2.5,0,0,0-2.5-2.5H957.27a2.5,2.5,0,0,0-2.5,2.5V671.06a2.5,2.5,0,0,0,2.5,2.5h8.565a2.5,2.5,0,0,0,2.5-2.5V656.071h.714v-3.212h-.714v-1.071Z" transform="translate(-356.463 -234.028)" fill="#d0cde1"/>
      <circle id="Ellipse_4" data-name="Ellipse 4" cx="1.428" cy="1.428" r="1.428" transform="translate(604.019 416.333)" fill="#3f3d56"/>
      <path id="Path_61" data-name="Path 61" d="M906.774,584.372l-7.285,29.95a8.437,8.437,0,0,0,3.642,10.523c6.476,4.047,21.046,9.309,21.046,9.309s12.951,17.808,14.57,10.523-9.714-16.594-9.714-16.594L909.2,615.536l7.69-21.046Z" transform="translate(-337.105 -213.153)" fill="#c78f97"/>
      <path id="Path_62" data-name="Path 62" d="M984.288,641.937s6.071-.81,5.666,6.071-8.5,7.69-8.5,7.69-3.643,15.38-8.9,12.547,2.833-18.213,2.833-18.213l6.88-5.261Z" transform="translate(-362.005 -233.078)" fill="#c78f97"/>
      <path id="Path_63" data-name="Path 63" d="M924.19,573.272l6.476-13.356-12.951,4.452s-7.285,3.643-7.69,12.142,9.309,12.951,9.309,12.951,1.619,12.142.809,13.761,0,8.095,0,8.095,15.582-4.25,23.272,1.012,13.963,2.226,13.963,2.226-.4-10.118,2.833-11.737,6.071-9.309,3.238-14.166c0,0,6.476.809,6.071-5.261s-3.643-11.332-8.9-13.761-5.843-2.817-5.843-2.817l7.462,13.744V584.2s-13.21-8.432-26.279-9.135a17.407,17.407,0,0,0-11.765,3.873h0Z" transform="translate(-340.963 -204.684)" fill="#2c2b3c"/>
    </g>
  </g>
</svg>
