<svg id="bridgeGap" xmlns="http://www.w3.org/2000/svg" width="491.15" height="173.161" viewBox="0 0 491.15 173.161">
  <path id="Path_64" data-name="Path 64" d="M1571.128,938.18h-50.648a10.42,10.42,0,0,1,0-20.84h50.648a10.42,10.42,0,0,1,0,20.84Z" transform="translate(-1090.397 -765.019)" fill="#3339dd"/>
  <path id="Path_65" data-name="Path 65" d="M376.37,651.961H312.159a10.42,10.42,0,0,1,0-20.84H376.37a9.466,9.466,0,0,0,9.457-8.326,163.143,163.143,0,0,1,322.051-12.713,10.42,10.42,0,0,1-20.453,4C674.443,547.771,615.737,499.64,547.834,499.64c-72.355,0-133.107,53.966-141.307,125.527A30.285,30.285,0,0,1,376.37,651.961Z" transform="translate(-301.74 -478.8)" fill="#3339dd"/>
</svg>
