<svg id="Component_1_1" data-name="Component 1 – 1" xmlns="http://www.w3.org/2000/svg" width="119" height="119" viewBox="0 0 119 119">
  <circle id="Ellipse_6" data-name="Ellipse 6" cx="59.5" cy="59.5" r="59.5" fill="#fd6666"/>
  <path id="Icon_material-keyboard-voice" data-name="Icon material-keyboard-voice" d="M37.669,56.219a12.876,12.876,0,0,0,12.887-12.93L50.6,17.43a12.93,12.93,0,1,0-25.859,0V43.289A12.912,12.912,0,0,0,37.669,56.219Zm22.842-12.93c0,12.93-10.947,21.98-22.842,21.98s-22.842-9.051-22.842-21.98H7.5c0,14.74,11.723,26.851,25.859,28.963V86.388h8.62V72.252c14.136-2.069,25.859-14.223,25.859-28.963Z" transform="translate(21.5 14.112)" fill="#fff"/>
</svg>
