<svg id="bridgeGap" xmlns="http://www.w3.org/2000/svg" width="491.15" height="385.3" viewBox="0 0 491.15 385.3">
  <path id="Path_64" data-name="Path 64" d="M1571.128,938.18h-50.648a10.42,10.42,0,0,1,0-20.84h50.648a10.42,10.42,0,0,1,0,20.84Z" transform="translate(-1090.397 -765.019)" fill="#fff"/>
  <path id="Path_65" data-name="Path 65" d="M376.37,651.961H312.159a10.42,10.42,0,0,1,0-20.84H376.37a9.466,9.466,0,0,0,9.457-8.326,163.143,163.143,0,0,1,322.051-12.713,10.42,10.42,0,0,1-20.453,4C674.443,547.771,615.737,499.64,547.834,499.64c-72.355,0-133.107,53.966-141.307,125.527A30.285,30.285,0,0,1,376.37,651.961Z" transform="translate(-301.74 -478.8)" fill="#fff"/>
  <g id="Group_1" data-name="Group 1" transform="translate(16.65 230.721)">
    <path id="Path_68" data-name="Path 68" d="M409.966,1195.521a5.749,5.749,0,0,1-1.372,3.529,30.581,30.581,0,0,1-11.274,8.677,33.593,33.593,0,0,1-14.115,3.088,32.142,32.142,0,0,1-23.822-9.854,34.636,34.636,0,0,1,0-48.085,32.231,32.231,0,0,1,23.822-9.805q14.019,0,21.763,8.138a6.706,6.706,0,0,1,2.06,4.706,5.522,5.522,0,0,1-1.813,4.168,6.011,6.011,0,0,1-4.265,1.716q-.979,0-6.863-3.334a22.368,22.368,0,0,0-10.881-3.334A18.934,18.934,0,0,0,368.5,1161.4a23.967,23.967,0,0,0-.1,30.882,18.962,18.962,0,0,0,14.8,6.471,18.5,18.5,0,0,0,9.607-2.549,60.436,60.436,0,0,0,5.783-4.609q2.943-2.548,4.9-2.549a6.715,6.715,0,0,1,6.47,6.474Z" transform="translate(-349.68 -1143.067)" fill="#fff"/>
    <path id="Path_69" data-name="Path 69" d="M611.6,1203.919a6.19,6.19,0,0,1-6.175,6.176H569.348a6.523,6.523,0,0,1-6.568-6.568v-53.038a6.568,6.568,0,1,1,13.135,0v47.352h29.508a6.027,6.027,0,0,1,4.362,1.765A5.787,5.787,0,0,1,611.6,1203.919Z" transform="translate(-488.768 -1143.621)" fill="#fff"/>
    <path id="Path_70" data-name="Path 70" d="M785.815,1176.894a33.085,33.085,0,0,1-9.655,24.067,33.663,33.663,0,0,1-47.6,0,34.636,34.636,0,0,1,0-48.085,33.782,33.782,0,0,1,47.6,0A32.923,32.923,0,0,1,785.815,1176.894Zm-13.038,0a22.315,22.315,0,0,0-5.491-15.391,20.6,20.6,0,0,0-29.7-.1,23.967,23.967,0,0,0-.1,30.882,20.389,20.389,0,0,0,29.8,0A22.309,22.309,0,0,0,772.777,1176.894Z" transform="translate(-590.64 -1143.067)" fill="#fff"/>
    <path id="Path_71" data-name="Path 71" d="M992.721,1191.016q0,10.587-8.822,15.686-7.158,4.116-18.529,4.116a56.921,56.921,0,0,1-16.664-2.744q-11.67-3.626-11.666-9.312a5.894,5.894,0,0,1,1.813-4.217,5.664,5.664,0,0,1,4.168-1.862,6.033,6.033,0,0,1,2.844.785,42.288,42.288,0,0,0,19.7,5.293q14.118,0,14.115-7.155,0-4.8-10.1-7.843-15.686-4.7-18.821-6.471-10.1-5.491-10.1-16.273,0-9.9,8.724-14.411,6.762-3.527,17.647-3.529,13.134,0,21.467,4.019,3.824,1.865,3.824,5.491a6.365,6.365,0,0,1-6.175,6.176,7.192,7.192,0,0,1-2.351-.49,49.6,49.6,0,0,0-16.567-3.136q-13.529,0-13.528,6.078,0,3.923,8.429,7.256,1.37.49,11.666,3.727,9.315,2.845,13.233,6.078Q992.717,1182.879,992.721,1191.016Z" transform="translate(-733.043 -1143.073)" fill="#fff"/>
    <path id="Path_72" data-name="Path 72" d="M1151.318,1204.214a6.41,6.41,0,0,1-1.862,4.651,6.192,6.192,0,0,1-4.609,1.91,6.522,6.522,0,0,1-6.568-6.561v-53.743a6.522,6.522,0,0,1,6.568-6.561,6.179,6.179,0,0,1,4.609,1.91,6.421,6.421,0,0,1,1.862,4.651Z" transform="translate(-864.39 -1143.615)" fill="#fff"/>
    <path id="Path_73" data-name="Path 73" d="M1287.37,1204.7a5.772,5.772,0,0,1-1.813,4.307,6.038,6.038,0,0,1-4.362,1.761,5.682,5.682,0,0,1-4.706-2.251l-31.956-41.573v37.759a5.77,5.77,0,0,1-1.813,4.3,6.052,6.052,0,0,1-4.362,1.761,6.019,6.019,0,0,1-6.078-6.068v-54.625a5.817,5.817,0,0,1,1.862-4.4,6.315,6.315,0,0,1,4.5-1.764,5.386,5.386,0,0,1,4.407,2.261l32.067,41.805v-37.884a6.03,6.03,0,0,1,1.764-4.366,5.79,5.79,0,0,1,4.314-1.817,6.19,6.19,0,0,1,6.175,6.169V1204.7Z" transform="translate(-925.743 -1143.615)" fill="#fff"/>
    <path id="Path_74" data-name="Path 74" d="M1492.459,1195.317a6.485,6.485,0,0,1-1.469,4.116,27.956,27.956,0,0,1-12.059,8.628,39.217,39.217,0,0,1-14.705,2.744A32.218,32.218,0,0,1,1440.4,1201a34.636,34.636,0,0,1,0-48.085,32.142,32.142,0,0,1,23.822-9.854q14.212,0,22.058,7.648a6.169,6.169,0,0,1,2.06,4.609,5.589,5.589,0,0,1-1.764,4.168,5.847,5.847,0,0,1-4.216,1.716q-.98,0-6.96-3.039a24.851,24.851,0,0,0-11.177-3.039,18.97,18.97,0,0,0-14.8,6.325,24.014,24.014,0,0,0,0,31.031,19.044,19.044,0,0,0,14.8,6.273q9.9,0,15.195-5.1v-9.215H1467.1a5.882,5.882,0,0,1-4.237-1.716,5.793,5.793,0,0,1-.01-8.336,5.84,5.84,0,0,1,4.216-1.716h18.821a6.7,6.7,0,0,1,6.568,6.572Z" transform="translate(-1055.25 -1143.06)" fill="#fff"/>
    <path id="Path_75" data-name="Path 75" d="M420.4,1402.636a5.793,5.793,0,0,1-1.813,4.314,6.027,6.027,0,0,1-4.362,1.764H396.282v47.168a6.517,6.517,0,0,1-6.568,6.558,6.189,6.189,0,0,1-4.609-1.907,6.4,6.4,0,0,1-1.862-4.651v-47.168H365.208a6.025,6.025,0,0,1-6.078-6.078,6.028,6.028,0,0,1,1.764-4.363,5.786,5.786,0,0,1,4.314-1.813h49.016a6.19,6.19,0,0,1,6.175,6.176Z" transform="translate(-355.848 -1308.445)" fill="#fff"/>
    <path id="Path_76" data-name="Path 76" d="M619.441,1454.215a6.41,6.41,0,0,1-1.862,4.651,6.192,6.192,0,0,1-4.609,1.91,6.511,6.511,0,0,1-6.568-6.544v-21.688H576.8v21.688a6.392,6.392,0,0,1-1.862,4.64,6.2,6.2,0,0,1-4.609,1.9,6.523,6.523,0,0,1-6.568-6.561v-53.743a6.523,6.523,0,0,1,6.568-6.561,6.179,6.179,0,0,1,4.609,1.91,6.432,6.432,0,0,1,1.862,4.658v19.805h29.6v-19.805a6.523,6.523,0,0,1,6.568-6.568,6.179,6.179,0,0,1,4.609,1.91,6.422,6.422,0,0,1,1.862,4.651Z" transform="translate(-489.408 -1306.781)" fill="#fff"/>
    <path id="Path_77" data-name="Path 77" d="M830.331,1455.674a5.787,5.787,0,0,1-1.813,4.314,6.027,6.027,0,0,1-4.362,1.764H787.1a6.522,6.522,0,0,1-6.568-6.568v-52.253a6.18,6.18,0,0,1,1.91-4.609,6.431,6.431,0,0,1,4.657-1.862h35.586a6.027,6.027,0,0,1,4.362,1.764,5.793,5.793,0,0,1,1.813,4.314,6.19,6.19,0,0,1-6.175,6.176H793.568v14.018h16.174a5.792,5.792,0,0,1,4.314,1.813,6.028,6.028,0,0,1,1.764,4.363,6.025,6.025,0,0,1-6.078,6.078H793.568v14.508h30.584a6.2,6.2,0,0,1,6.179,6.179Z" transform="translate(-630.891 -1308.445)" fill="#fff"/>
    <path id="Path_78" data-name="Path 78" d="M1093.209,1445.317a6.485,6.485,0,0,1-1.469,4.116,27.956,27.956,0,0,1-12.059,8.628,39.216,39.216,0,0,1-14.705,2.744,32.218,32.218,0,0,1-23.822-9.805,34.636,34.636,0,0,1,0-48.085,32.142,32.142,0,0,1,23.822-9.854q14.212,0,22.058,7.648a6.169,6.169,0,0,1,2.06,4.609,5.589,5.589,0,0,1-1.764,4.168,5.847,5.847,0,0,1-4.216,1.716q-.979,0-6.96-3.039a24.85,24.85,0,0,0-11.177-3.039,18.97,18.97,0,0,0-14.8,6.325,24.014,24.014,0,0,0,0,31.031,19.043,19.043,0,0,0,14.8,6.273q9.9,0,15.195-5.1v-9.215h-12.319a5.882,5.882,0,0,1-4.237-1.716,5.793,5.793,0,0,1-.01-8.336,5.841,5.841,0,0,1,4.216-1.716h18.821a6.7,6.7,0,0,1,6.568,6.572Z" transform="translate(-794.664 -1306.226)" fill="#fff"/>
    <path id="Path_79" data-name="Path 79" d="M1293.819,1454.77a5.835,5.835,0,0,1-1.723,4.265,5.769,5.769,0,0,1-4.279,1.744,5.583,5.583,0,0,1-5.512-3.411l-5.359-11.979h-28.382l-5.362,11.945a5.539,5.539,0,0,1-5.474,3.446,6.172,6.172,0,0,1-6.158-6.165,5.812,5.812,0,0,1,.587-2.445l25.1-54.719a5.484,5.484,0,0,1,5.39-3.529,5.7,5.7,0,0,1,5.686,3.529l25,54.8A6,6,0,0,1,1293.819,1454.77ZM1272,1434.312l-9.273-20.326-9.2,20.326Z" transform="translate(-925.28 -1306.787)" fill="#fff"/>
    <path id="Path_80" data-name="Path 80" d="M1497.951,1416.859q0,10.1-7.057,15.391-6.372,4.8-16.862,4.8h-17.744V1456a6.148,6.148,0,0,1-1.91,4.592,6.439,6.439,0,0,1-4.657,1.855,6.353,6.353,0,0,1-6.47-6.46v-53.056a6.354,6.354,0,0,1,6.47-6.46h24.312q10.487,0,16.862,4.9Q1497.953,1406.758,1497.951,1416.859Zm-13.135,0a7.929,7.929,0,0,0-2.5-6.127,9.106,9.106,0,0,0-6.422-2.3h-19.606V1425h19.606a9.53,9.53,0,0,0,6.373-2.157A7.416,7.416,0,0,0,1484.816,1416.859Z" transform="translate(-1063.441 -1308.452)" fill="#fff"/>
  </g>
</svg>
